<svg width="15" height="16" viewBox="0 0 15 16" fill="none" xmlns="http://www.w3.org/2000/svg">
<path d="M8.71376 8L14.8661 0.666406C14.9692 0.544531 14.8825 0.359375 14.7231 0.359375H12.8528C12.7427 0.359375 12.6372 0.408594 12.5645 0.492969L7.49032 6.54219L2.41611 0.492969C2.34579 0.408594 2.24032 0.359375 2.12782 0.359375H0.257512C0.0981371 0.359375 0.0114182 0.544531 0.114543 0.666406L6.26689 8L0.114543 15.3336C0.0914423 15.3608 0.0766221 15.394 0.0718417 15.4293C0.0670613 15.4647 0.0725215 15.5006 0.0875745 15.533C0.102627 15.5653 0.126641 15.5926 0.156764 15.6117C0.186886 15.6308 0.221853 15.6408 0.257512 15.6406H2.12782C2.23798 15.6406 2.34345 15.5914 2.41611 15.507L7.49032 9.45781L12.5645 15.507C12.6349 15.5914 12.7403 15.6406 12.8528 15.6406H14.7231C14.8825 15.6406 14.9692 15.4555 14.8661 15.3336L8.71376 8Z" fill="white"/>
</svg>
